<?xml version="1.0" encoding="UTF-8" standalone="no"?>
<!-- Created with Inkscape (http://www.inkscape.org/) -->

<svg
   version="1.1"
   id="svg2"
   width="35"
   height="35"
   viewBox="0 0 35 35"
   sodipodi:docname="icons.svg"
   xml:space="preserve"
   inkscape:version="1.2.2 (b0a8486541, 2022-12-01)"
   xmlns:inkscape="http://www.inkscape.org/namespaces/inkscape"
   xmlns:sodipodi="http://sodipodi.sourceforge.net/DTD/sodipodi-0.dtd"
   xmlns="http://www.w3.org/2000/svg"
   xmlns:svg="http://www.w3.org/2000/svg"><defs
     id="defs6" /><sodipodi:namedview
     id="namedview4"
     pagecolor="#ffffff"
     bordercolor="#000000"
     borderopacity="0.25"
     inkscape:showpageshadow="2"
     inkscape:pageopacity="0.0"
     inkscape:pagecheckerboard="true"
     inkscape:deskcolor="#d1d1d1"
     showgrid="false"
     inkscape:zoom="8.16229"
     inkscape:cx="42.145035"
     inkscape:cy="30.812431"
     inkscape:window-width="1920"
     inkscape:window-height="1013"
     inkscape:window-x="0"
     inkscape:window-y="37"
     inkscape:window-maximized="1"
     inkscape:current-layer="g8" /><g
     inkscape:groupmode="layer"
     inkscape:label="Image"
     id="g8"><path
       style="fill:#000000;stroke-width:0.0202728"
       d="m 13.943303,34.976945 c -0.04307,-0.01602 -0.105158,-0.05485 -0.137972,-0.08629 -0.133647,-0.128042 -0.2509,-0.485306 -0.235123,-0.716412 0.0042,-0.06133 0.09195,-0.394306 0.195022,-0.739957 0.294853,-0.988752 0.753092,-2.603642 0.758389,-2.67266 0.0047,-0.06194 0.0025,-0.06348 -0.187779,-0.128725 -1.578556,-0.541282 -2.622863,-2.395213 -2.61297,-4.638734 10e-4,-0.223 0.0078,-0.455047 0.01499,-0.515658 l 0.0132,-0.110205 0.910902,1.027233 c 0.500996,0.564976 0.914378,1.023757 0.918625,1.019509 0.01181,-0.0118 -0.128903,-0.284172 -0.448963,-0.869068 -0.456618,-0.83445 -0.615657,-1.167185 -0.769145,-1.609164 -0.128438,-0.369847 -0.165474,-0.58304 -0.164979,-0.949654 5.8e-4,-0.429026 0.02384,-0.507122 0.353212,-1.185958 0.265848,-0.547911 0.532542,-1.147133 0.692442,-1.55581 0.04906,-0.125367 0.09393,-0.227998 0.09973,-0.228069 0.0116,-2.03e-4 0.665828,1.239202 1.166408,2.209608 0.175426,0.340076 0.326024,0.626249 0.334661,0.635939 0.0086,0.0097 -0.0522,-0.19101 -0.135171,-0.446001 -0.432938,-1.330378 -0.666038,-2.151575 -0.758844,-2.673356 -0.02572,-0.144653 -0.0477,-0.37477 -0.05419,-0.567639 -0.01793,-0.532234 0.03816,-0.820699 0.368594,-1.895507 0.312,-1.014859 0.552616,-1.878145 0.711157,-2.551513 0.05207,-0.221162 0.05563,-0.228786 0.08979,-0.192591 0.07024,0.07443 1.349955,1.473363 1.413652,1.545356 0.03582,0.04048 0.06547,0.06805 0.06589,0.06125 4.21e-4,-0.0068 -0.08067,-0.18013 -0.180202,-0.385183 -0.706435,-1.455398 -0.979492,-2.576561 -0.91266,-3.747344 0.02487,-0.435748 0.07343,-0.814077 0.19137,-1.490951 0.293725,-1.6857778 0.378899,-2.3387653 0.436316,-3.345012 0.01209,-0.2118502 0.02397,-0.3988668 0.02642,-0.4155917 0.004,-0.027741 0.366525,0.4394773 1.026441,1.3230198 0.13883,0.1858755 0.255205,0.3351687 0.258612,0.3317621 0.0034,-0.00342 -0.0356,-0.095628 -0.08668,-0.2049387 C 17.040702,8.6442824 16.771595,7.9227699 16.59499,7.3065468 16.364187,6.5012094 16.217782,5.7252242 16.039648,4.3630931 15.911892,3.3861771 15.835403,2.8858732 15.743659,2.4270407 15.593179,1.6744712 15.366759,0.9253717 15.091908,0.27075368 15.031686,0.12732463 14.986722,0.00566648 14.991987,4.0228986e-4 15.003891,-0.01150423 15.549793,0.24367895 15.836026,0.39495276 c 1.452527,0.76765594 2.320459,1.54682074 2.767505,2.48446084 0.319165,0.6694223 0.417914,1.3830251 0.301706,2.1802407 -0.01683,0.1155074 -0.02676,0.2138696 -0.02205,0.2185824 0.0047,0.00471 0.02064,-0.021372 0.03539,-0.057968 0.01475,-0.036595 0.148835,-0.3174125 0.297961,-0.6240386 0.254321,-0.5229248 0.273028,-0.5549873 0.301613,-0.5169564 0.08083,0.1075419 0.672501,1.0423885 0.904576,1.4292325 0.286909,0.4782489 0.640844,1.1751391 0.754889,1.4863605 0.411444,1.1228098 0.296039,1.9663043 -0.502533,3.6730663 -0.08347,0.178402 -0.229853,0.486295 -0.325294,0.684208 -0.09544,0.197913 -0.170408,0.359842 -0.166598,0.359842 0.0089,0 0.401861,-0.552921 1.102223,-1.550869 0.30518,-0.4348522 0.55725,-0.7930496 0.560157,-0.7959957 0.0072,-0.00729 0.210536,0.6924087 0.369723,1.2724057 0.664685,2.421797 0.688572,3.417685 0.110618,4.611737 -0.249857,0.516204 -0.400127,0.75295 -1.754245,2.763797 -0.287683,0.427206 -0.519615,0.780179 -0.515408,0.784388 0.0042,0.0042 0.08497,-0.06705 0.179463,-0.158351 0.0945,-0.0913 0.299531,-0.289268 0.455633,-0.439924 1.228938,-1.186074 1.569798,-1.516748 1.919061,-1.861716 l 0.398602,-0.393701 0.01195,0.109054 c 0.01138,0.103893 0.119149,1.446277 0.183704,2.288381 0.09995,1.303849 0.09675,2.10428 -0.01057,2.637574 -0.105787,0.525739 -0.312043,0.917965 -0.6678,1.269919 -0.480356,0.475223 -1.22188,0.882746 -2.996117,1.646596 -0.292984,0.126135 -0.529883,0.232155 -0.526437,0.2356 0.0034,0.0034 0.04246,-0.0024 0.0867,-0.01303 0.175679,-0.04212 2.70639,-0.657168 3.178312,-0.772428 0.276624,-0.06756 0.508274,-0.117519 0.514774,-0.111018 0.02914,0.02913 -0.14804,0.990675 -0.288125,1.563672 -0.14679,0.600424 -0.329441,1.097077 -0.588989,1.601551 -0.893717,1.737093 -2.527207,3.217743 -4.367495,3.958846 -0.268181,0.107997 -0.726006,0.258332 -0.741014,0.243324 -0.0049,-0.0049 0.0095,-0.108542 0.03211,-0.230309 0.432354,-2.333131 0.960076,-6.373127 1.285454,-9.840836 0.328352,-3.499428 0.484518,-6.374534 0.484504,-8.920033 -10e-6,-1.47192 -0.02866,-2.2260817 -0.119749,-3.1524206 -0.05255,-0.534369 -0.177731,-1.3218683 -0.231292,-1.4550187 -0.01726,-0.042894 -0.01823,-0.042323 -0.01946,0.011342 -7.08e-4,0.031081 0.01669,0.2044131 0.03865,0.3851833 0.247325,2.0354833 0.166036,5.383674 -0.233405,9.613615 -0.508241,5.382127 -1.531263,11.956404 -2.394375,15.387055 -0.362687,1.44159 -0.568259,1.920859 -0.997656,2.32593 -0.238919,0.225384 -0.508033,0.321822 -0.699415,0.25064 z"
       id="path1039" /></g></svg>
